<svg xmlns="http://www.w3.org/2000/svg" viewBox="0 0 512 512"><g id="_48_building" data-name="48 building"><g id="_Group_" data-name="&lt;Group&gt;"><path id="_Path_" data-name="&lt;Path&gt;" d="M205.33 128.16h20v20h-20z"/><path id="_Path_2" data-name="&lt;Path&gt;" d="M245.75 128.16h20v20h-20z"/><path id="_Path_3" data-name="&lt;Path&gt;" d="M205.33 168.16h20v20h-20z"/><path id="_Path_4" data-name="&lt;Path&gt;" d="M245.75 168.16h20v20h-20z"/><path id="_Path_5" data-name="&lt;Path&gt;" d="M205.33 208.16h20v20h-20z"/><path id="_Path_6" data-name="&lt;Path&gt;" d="M245.75 208.16h20v20h-20z"/><path id="_Path_7" data-name="&lt;Path&gt;" d="M205.33 248.16h20v20h-20z"/><path id="_Path_8" data-name="&lt;Path&gt;" d="M245.75 248.16h20v20h-20z"/><path id="_Path_9" data-name="&lt;Path&gt;" d="M205.33 288.16h20v20h-20z"/><path id="_Path_10" data-name="&lt;Path&gt;" d="M245.75 288.16h20v20h-20z"/><path id="_Path_11" data-name="&lt;Path&gt;" d="M205.33 328.16h20v20h-20z"/><path id="_Path_12" data-name="&lt;Path&gt;" d="M245.75 328.16h20v20h-20z"/><path id="_Path_13" data-name="&lt;Path&gt;" d="M286.66 128.16h20v20h-20z"/><path id="_Path_14" data-name="&lt;Path&gt;" d="M286.66 168.16h20v20h-20z"/><path id="_Path_15" data-name="&lt;Path&gt;" d="M286.66 208.16h20v20h-20z"/><path id="_Path_16" data-name="&lt;Path&gt;" d="M286.66 248.16h20v20h-20z"/><path id="_Path_17" data-name="&lt;Path&gt;" d="M286.66 288.16h20v20h-20z"/><path id="_Path_18" data-name="&lt;Path&gt;" d="M286.66 328.16h20v20h-20z"/><path id="_Compound_Path_" data-name="&lt;Compound Path&gt;" d="M459 455.22a48 48 0 10-20 0v21.59h-64V87.9h20V14.84H117V87.9h20v388.91H73v-21.59a48 48 0 10-20 0v21.59H15v20h190.33v.35h101.34v-.35H497v-20h-38zm-38-46.91a28 28 0 1138 26.12v-16.54h-20v16.52a28 28 0 01-17.94-26.11zm-386-.01a28 28 0 1138 26.12v-16.53H53v16.52a28 28 0 01-18-26.11zM137 34.84h238V67.9H137zm140.53 442h-43.07v-72.45h43.08zm20 0v-92.45h-83.07v92.42H157V87.9h198v388.91z"/></g></g></svg>