<svg xmlns="http://www.w3.org/2000/svg" viewBox="0 0 512 512"><g id="_72_buildings" data-name="72 buildings"><g id="_Group_" data-name="&lt;Group&gt;"><path id="_Compound_Path_" data-name="&lt;Compound Path&gt;" d="M368.16 168v-59.75h26.09V35.6H117.76v72.65h26.09V168H15v308.4h482V168zm-230.4-79.75V55.6h236.48v32.65H137.76zm6.09 368.15H35V188h108.84zm156.49 0H266V353.25h34.33zm-54.33 0h-34.34V353.25H246zm102.16 0h-27.84V333.25H191.67V456.4h-27.83V108.25h184.32V456.4zm128.84 0H368.16V188H477z"/><path id="_Compound_Path_2" data-name="&lt;Compound Path&gt;" d="M187.25 199.92h60.82V139.1h-60.82zm20-40.82h20.82v20.82h-20.82z"/><path id="_Compound_Path_3" data-name="&lt;Compound Path&gt;" d="M263.92 199.92h60.82V139.1h-60.82zm20-40.82h20.82v20.82h-20.82z"/><path id="_Compound_Path_4" data-name="&lt;Compound Path&gt;" d="M187.25 276.08h60.82v-60.83h-60.82zm20-40.82h20.82v20.82h-20.82z"/><path id="_Compound_Path_5" data-name="&lt;Compound Path&gt;" d="M263.92 276.08h60.82v-60.83h-60.82zm20-40.82h20.82v20.82h-20.82z"/><path id="_Path_" data-name="&lt;Path&gt;" d="M58.92 215.69h61v20h-61z"/><path id="_Path_2" data-name="&lt;Path&gt;" d="M58.92 263.25h61v20h-61z"/><path id="_Path_3" data-name="&lt;Path&gt;" d="M58.92 310.82h61v20h-61z"/><path id="_Path_4" data-name="&lt;Path&gt;" d="M393.11 215.69h61v20h-61z"/><path id="_Path_5" data-name="&lt;Path&gt;" d="M393.11 263.25h61v20h-61z"/><path id="_Path_6" data-name="&lt;Path&gt;" d="M393.11 310.82h61v20h-61z"/></g></g></svg>