<svg xmlns="http://www.w3.org/2000/svg" viewBox="0 0 512 512"><g id="_01_Home" data-name="01 Home"><g id="_Group_" data-name="&lt;Group&gt;"><path id="_Compound_Path_" data-name="&lt;Compound Path&gt;" d="M421.53 266.87l28.39 21.84 47.64-52.15L415 173V49.14h-82.46v60.48L256 50.73 14.44 236.56l47.64 52.15 28.39-21.84v176H15v20h482v-20h-75.47zm-69-197.73H395v88.52L352.54 125zm-308.65 170L256 76l212.11 163.14-20.56 22.51L256 114.3 64.45 261.65zm174.43 203.72V301.21h75.38v141.65zm95.38 0V281.21H198.31v161.65h-87.84V251.52L256 139.57l145.53 111.95v191.34z"/><path id="_Path_" data-name="&lt;Path&gt;" d="M197.88 236.06h116.25v20H197.88z"/></g></g></svg>