<svg width="54" height="54" xmlns="http://www.w3.org/2000/svg"><g id="Page-1" stroke="none" stroke-width="1" fill="none" fill-rule="evenodd"><g id="splash/Desktop" transform="translate(-1562 -3092)" fill="#384F69" fill-rule="nonzero"><g id="instagram" transform="translate(1562 3092)"><path d="M15.66 0h22.68C46.98 0 54 7.02 54 15.66v22.68C54 46.989 46.989 54 38.34 54H15.66C7.02 54 0 46.98 0 38.34V15.66C0 7.011 7.011 0 15.66 0zm-.54 5.4c-5.368 0-9.72 4.352-9.72 9.72v23.76a9.714 9.714 0 009.72 9.72h23.76c5.368 0 9.72-4.352 9.72-9.72V15.12a9.714 9.714 0 00-9.72-9.72H15.12zm26.055 4.05a3.375 3.375 0 110 6.75 3.375 3.375 0 010-6.75zM27 13.5c7.456 0 13.5 6.044 13.5 13.5S34.456 40.5 27 40.5 13.5 34.456 13.5 27 19.544 13.5 27 13.5zm0 5.4a8.1 8.1 0 100 16.2 8.1 8.1 0 000-16.2z" id="Shape"/></g></g></g></svg>