<svg xmlns="http://www.w3.org/2000/svg" width="24" height="24"><defs><clipPath id="clip-path"><path id="user" transform="translate(1210 44)" d="M0 0h24v24H0z"/></clipPath></defs><g id="Mask_Group_45" data-name="Mask Group 45" transform="translate(-1210 -44)" clip-path="url(#clip-path)"><path id="user-2" data-name="user" d="M14.7 14.25c-1.345 0-1.992.75-4.2.75s-2.85-.75-4.2-.75a6.3 6.3 0 00-6.3 6.3v1.2A2.251 2.251 0 002.25 24h16.5A2.251 2.251 0 0021 21.75v-1.2a6.3 6.3 0 00-6.3-6.3zm4.05 7.5H2.25v-1.2A4.057 4.057 0 016.3 16.5c.684 0 1.8.75 4.2.75 2.423 0 3.511-.75 4.2-.75a4.057 4.057 0 014.05 4.05zM10.5 13.5a6.75 6.75 0 10-6.75-6.75 6.752 6.752 0 006.75 6.75zm0-11.25A4.5 4.5 0 116 6.75a4.507 4.507 0 014.5-4.5z" transform="translate(1211.5 44)"/></g></svg>