<svg width="48" height="48" xmlns="http://www.w3.org/2000/svg"><g id="Page-1" stroke="none" stroke-width="1" fill="none" fill-rule="evenodd"><g id="splash/Desktop" transform="translate(-1650 -3095)" fill="#384F69" fill-rule="nonzero"><g id="twitter-box" transform="translate(1650 3095)"><path d="M5.333 0h37.334A5.333 5.333 0 0148 5.333v37.334A5.333 5.333 0 0142.667 48H5.333A5.333 5.333 0 010 42.667V5.333A5.333 5.333 0 015.333 0zm33.894 16.88c1.28-1.067 2.773-2.347 3.44-3.76-1.094.56-2.4.907-3.84 1.093 1.333-.96 2.426-2.213 2.986-3.92-1.386.747-2.8 1.387-4.56 1.707-4.133-4.987-14.026-.933-12.266 6.533-6.96-.426-11.2-3.573-14.72-7.44-2 3.254-.267 8.187 2.106 9.547-1.226-.08-2.16-.453-3.04-.88.107 4.107 2.374 6.08 5.547 7.147-.96.186-2.027.24-3.04.08.987 2.853 3.04 4.64 6.56 5.013-2.4 2.027-6.827 3.44-10.4 2.88 3.067 1.947 6.56 3.493 11.413 3.28 11.76-.533 19.627-8.96 19.814-21.28z" id="Shape"/></g></g></g></svg>